<mxfile host="65bd71144e">
    <diagram id="8e1mUy6_R3QayLHpGOx4" name="Page-1">
        <mxGraphModel dx="1022" dy="750" grid="0" gridSize="10" guides="1" tooltips="1" connect="1" arrows="1" fold="1" page="0" pageScale="1" pageWidth="850" pageHeight="1100" background="#FFFFFF" math="0" shadow="0">
            <root>
                <mxCell id="0"/>
                <mxCell id="1" parent="0"/>
                <mxCell id="26" value="&lt;b&gt;&lt;font color=&quot;#ffffff&quot;&gt;Register New Book&lt;/font&gt;&lt;/b&gt;" style="shape=umlFrame;whiteSpace=wrap;html=1;width=140;height=30;fillColor=#1ba1e2;strokeColor=#006EAF;fontColor=#ffffff;" parent="1" vertex="1">
                    <mxGeometry y="61" width="880" height="469" as="geometry"/>
                </mxCell>
                <mxCell id="30" value="&lt;b&gt;alt&lt;/b&gt;" style="shape=umlFrame;whiteSpace=wrap;html=1;fontColor=#ffffff;fillColor=#FF3333;strokeColor=#FF3333;" parent="1" vertex="1">
                    <mxGeometry x="23" y="320" width="835" height="131" as="geometry"/>
                </mxCell>
                <mxCell id="2" value="&lt;b&gt;RestApi&lt;/b&gt;" style="shape=umlLifeline;perimeter=lifelinePerimeter;whiteSpace=wrap;html=1;container=1;collapsible=0;recursiveResize=0;outlineConnect=0;fillColor=#1ba1e2;fontColor=#ffffff;strokeColor=#006EAF;" parent="1" vertex="1">
                    <mxGeometry x="460" y="160" width="100" height="361" as="geometry"/>
                </mxCell>
                <mxCell id="18" value="" style="html=1;points=[];perimeter=orthogonalPerimeter;fillColor=#1ba1e2;fontColor=#ffffff;strokeColor=#006EAF;" parent="2" vertex="1">
                    <mxGeometry x="45" y="100" width="10" height="180" as="geometry"/>
                </mxCell>
                <mxCell id="3" value="&lt;b&gt;DB&lt;/b&gt;" style="shape=umlLifeline;perimeter=lifelinePerimeter;whiteSpace=wrap;html=1;container=1;collapsible=0;recursiveResize=0;outlineConnect=0;lifelineDashed=0;fillColor=#FF3333;fontColor=#ffffff;strokeColor=#6F0000;" parent="1" vertex="1">
                    <mxGeometry x="650" y="160" width="100" height="361" as="geometry"/>
                </mxCell>
                <mxCell id="21" value="" style="html=1;points=[];perimeter=orthogonalPerimeter;fillColor=#FF3333;fontColor=#ffffff;strokeColor=#6F0000;" parent="3" vertex="1">
                    <mxGeometry x="45" y="120" width="10" height="160" as="geometry"/>
                </mxCell>
                <mxCell id="25" value="&lt;span style=&quot;background-color: rgb(255 , 255 , 255)&quot;&gt;&lt;font color=&quot;#000000&quot;&gt;&lt;b&gt;Execute(Query)&lt;/b&gt;&lt;/font&gt;&lt;/span&gt;" style="edgeStyle=orthogonalEdgeStyle;html=1;align=left;spacingLeft=2;endArrow=block;rounded=0;strokeColor=#000000;" parent="3" edge="1">
                    <mxGeometry relative="1" as="geometry">
                        <mxPoint x="55" y="170.02" as="sourcePoint"/>
                        <Array as="points">
                            <mxPoint x="100" y="170.02"/>
                            <mxPoint x="100" y="210.02"/>
                        </Array>
                        <mxPoint x="55" y="210.02" as="targetPoint"/>
                    </mxGeometry>
                </mxCell>
                <mxCell id="33" value="&lt;font color=&quot;#000000&quot;&gt;&lt;span style=&quot;background-color: rgb(255 , 255 , 255)&quot;&gt;&lt;b&gt;Book Already Exists&lt;/b&gt;&lt;/span&gt;&lt;/font&gt;" style="html=1;verticalAlign=bottom;endArrow=open;dashed=1;endSize=8;strokeColor=#000000;strokeWidth=2;" parent="3" edge="1">
                    <mxGeometry relative="1" as="geometry">
                        <mxPoint x="-135" y="270" as="targetPoint"/>
                        <mxPoint x="45" y="270" as="sourcePoint"/>
                        <Array as="points">
                            <mxPoint x="-110" y="270"/>
                        </Array>
                    </mxGeometry>
                </mxCell>
                <mxCell id="5" value="&lt;b&gt;library:Library&lt;/b&gt;" style="shape=umlLifeline;perimeter=lifelinePerimeter;whiteSpace=wrap;html=1;container=1;collapsible=0;recursiveResize=0;outlineConnect=0;fillColor=#60a917;fontColor=#ffffff;strokeColor=#2D7600;" parent="1" vertex="1">
                    <mxGeometry x="265" y="160" width="100" height="361" as="geometry"/>
                </mxCell>
                <mxCell id="14" style="edgeStyle=none;html=1;" parent="5" source="6" target="5" edge="1">
                    <mxGeometry relative="1" as="geometry"/>
                </mxCell>
                <mxCell id="6" value="" style="html=1;points=[];perimeter=orthogonalPerimeter;fillColor=#60a917;fontColor=#ffffff;strokeColor=#2D7600;" parent="5" vertex="1">
                    <mxGeometry x="45" y="80" width="10" height="200" as="geometry"/>
                </mxCell>
                <mxCell id="9" value="" style="shape=umlLifeline;participant=umlActor;perimeter=lifelinePerimeter;whiteSpace=wrap;html=1;container=1;collapsible=0;recursiveResize=0;verticalAlign=top;spacingTop=36;outlineConnect=0;fillColor=#fa6800;fontColor=#000000;strokeColor=#C73500;" parent="1" vertex="1">
                    <mxGeometry x="80" y="160" width="20" height="362" as="geometry"/>
                </mxCell>
                <mxCell id="11" value="&lt;b style=&quot;background-color: rgb(255 , 255 , 255)&quot;&gt;&lt;font color=&quot;#000000&quot;&gt;Book&lt;/font&gt;&lt;/b&gt;" style="html=1;verticalAlign=bottom;endArrow=open;dashed=1;endSize=8;exitX=-0.133;exitY=0.701;exitDx=0;exitDy=0;exitPerimeter=0;strokeColor=#000000;strokeWidth=2;" parent="1" source="6" target="9" edge="1">
                    <mxGeometry relative="1" as="geometry">
                        <mxPoint x="190" y="360" as="sourcePoint"/>
                        <mxPoint x="225" y="320" as="targetPoint"/>
                    </mxGeometry>
                </mxCell>
                <mxCell id="19" value="&lt;span style=&quot;background-color: rgb(255 , 255 , 255)&quot;&gt;&lt;font color=&quot;#000000&quot;&gt;&lt;b&gt;postBook(Book)&lt;/b&gt;&lt;/font&gt;&lt;/span&gt;" style="html=1;verticalAlign=bottom;endArrow=block;entryX=0;entryY=0;exitX=1.033;exitY=0.104;exitDx=0;exitDy=0;exitPerimeter=0;strokeColor=#000000;" parent="1" source="6" target="18" edge="1">
                    <mxGeometry relative="1" as="geometry">
                        <mxPoint x="330" y="260" as="sourcePoint"/>
                    </mxGeometry>
                </mxCell>
                <mxCell id="20" value="&lt;span style=&quot;background-color: rgb(255 , 255 , 255)&quot;&gt;&lt;font color=&quot;#000000&quot;&gt;&lt;b&gt;Code: 200; Book&lt;/b&gt;&lt;/font&gt;&lt;/span&gt;" style="html=1;verticalAlign=bottom;endArrow=open;dashed=1;endSize=8;strokeColor=#000000;strokeWidth=2;" parent="1" source="18" target="6" edge="1">
                    <mxGeometry relative="1" as="geometry">
                        <mxPoint x="340" y="345" as="targetPoint"/>
                    </mxGeometry>
                </mxCell>
                <mxCell id="22" value="&lt;b style=&quot;background-color: rgb(255 , 255 , 255)&quot;&gt;&lt;font color=&quot;#000000&quot;&gt;inser(Book)&lt;/font&gt;&lt;/b&gt;" style="html=1;verticalAlign=bottom;endArrow=block;entryX=-0.383;entryY=0.111;exitX=1.033;exitY=0.213;exitDx=0;exitDy=0;exitPerimeter=0;strokeColor=#000000;entryDx=0;entryDy=0;entryPerimeter=0;shadow=0;sketch=0;startFill=1;endFill=1;" parent="1" source="18" target="21" edge="1">
                    <mxGeometry relative="1" as="geometry">
                        <mxPoint x="520" y="280" as="sourcePoint"/>
                    </mxGeometry>
                </mxCell>
                <mxCell id="23" value="&lt;font color=&quot;#000000&quot; style=&quot;background-color: rgb(255 , 255 , 255)&quot;&gt;&lt;b&gt;bookID&lt;/b&gt;&lt;/font&gt;" style="html=1;verticalAlign=bottom;endArrow=open;dashed=1;endSize=8;strokeColor=#000000;strokeWidth=2;" parent="1" source="21" target="18" edge="1">
                    <mxGeometry relative="1" as="geometry">
                        <mxPoint x="530" y="337" as="targetPoint"/>
                        <Array as="points">
                            <mxPoint x="540" y="340"/>
                        </Array>
                    </mxGeometry>
                </mxCell>
                <mxCell id="13" value="&lt;font color=&quot;#000000&quot;&gt;&lt;b&gt;&lt;i style=&quot;background-color: rgb(255 , 255 , 255)&quot;&gt;registerBook(Book)&lt;/i&gt;&lt;/b&gt;&lt;/font&gt;" style="html=1;verticalAlign=bottom;endArrow=block;entryX=-0.162;entryY=0.002;entryDx=0;entryDy=0;entryPerimeter=0;strokeColor=#000000;align=center;" parent="1" source="9" target="6" edge="1">
                    <mxGeometry width="80" relative="1" as="geometry">
                        <mxPoint x="90" y="240" as="sourcePoint"/>
                        <mxPoint x="290" y="240" as="targetPoint"/>
                    </mxGeometry>
                </mxCell>
                <mxCell id="31" value="" style="endArrow=none;dashed=1;html=1;strokeWidth=2;labelBackgroundColor=#FFFFFF;fontColor=#FFFFFF;fillColor=#e51400;strokeColor=#FF3333;" parent="1" edge="1">
                    <mxGeometry width="50" height="50" relative="1" as="geometry">
                        <mxPoint x="25" y="400" as="sourcePoint"/>
                        <mxPoint x="856" y="400" as="targetPoint"/>
                    </mxGeometry>
                </mxCell>
                <mxCell id="32" value="&lt;font color=&quot;#000000&quot;&gt;&lt;b style=&quot;background-color: rgb(255 , 255 , 255)&quot;&gt;Code: 409&lt;/b&gt;&lt;/font&gt;" style="html=1;verticalAlign=bottom;endArrow=open;dashed=1;endSize=8;strokeColor=#000000;strokeWidth=2;" parent="1" edge="1">
                    <mxGeometry relative="1" as="geometry">
                        <mxPoint x="320" y="430" as="targetPoint"/>
                        <mxPoint x="500" y="430" as="sourcePoint"/>
                        <Array as="points">
                            <mxPoint x="345" y="430"/>
                        </Array>
                    </mxGeometry>
                </mxCell>
                <mxCell id="35" value="&lt;b style=&quot;background-color: rgb(255 , 255 , 255)&quot;&gt;&lt;font color=&quot;#000000&quot;&gt;Null&lt;/font&gt;&lt;/b&gt;" style="html=1;verticalAlign=bottom;endArrow=open;dashed=1;endSize=8;exitX=-0.133;exitY=0.701;exitDx=0;exitDy=0;exitPerimeter=0;strokeColor=#000000;strokeWidth=2;" parent="1" edge="1">
                    <mxGeometry relative="1" as="geometry">
                        <mxPoint x="309.00000000000006" y="430.00000000000006" as="sourcePoint"/>
                        <mxPoint x="89.99666666666651" y="430.00000000000006" as="targetPoint"/>
                    </mxGeometry>
                </mxCell>
                <mxCell id="36" value="Librarian" style="text;html=1;align=center;verticalAlign=middle;resizable=0;points=[];autosize=1;strokeColor=none;fillColor=none;fontColor=#000000;fontStyle=1" parent="1" vertex="1">
                    <mxGeometry x="59.5" y="133" width="61" height="18" as="geometry"/>
                </mxCell>
            </root>
        </mxGraphModel>
    </diagram>
</mxfile>